<svg width="376" height="136" viewBox="0 0 376 136" fill="none" xmlns="http://www.w3.org/2000/svg">
<path d="M92.0859 3L87.7891 56.2031L71.3047 57.0625V4.09375L92.0859 3ZM143.297 38.2344C143.297 41.1771 143.258 44.0938 143.18 46.9844C143.128 49.849 143.036 52.7396 142.906 55.6562L120.406 55.2656C121.188 50.6562 121.865 46.0599 122.438 41.4766C123.01 36.8672 123.297 32.2188 123.297 27.5312C123.297 27.1927 123.284 26.6458 123.258 25.8906C123.232 25.1354 123.18 24.2891 123.102 23.3516C123.023 22.388 122.906 21.4115 122.75 20.4219C122.62 19.4062 122.424 18.4818 122.164 17.6484C121.93 16.8151 121.63 16.138 121.266 15.6172C120.927 15.0703 120.51 14.7969 120.016 14.7969C119.13 14.7969 118.375 15.0573 117.75 15.5781C117.151 16.099 116.643 16.776 116.227 17.6094C115.836 18.4167 115.523 19.3281 115.289 20.3438C115.055 21.3594 114.872 22.375 114.742 23.3906C114.638 24.4062 114.56 25.3698 114.508 26.2812C114.482 27.1667 114.469 27.8958 114.469 28.4688C114.339 33.0781 114.234 37.6615 114.156 42.2188C114.078 46.75 113.974 51.3333 113.844 55.9688L93.9219 56.8281C94.4427 47.6354 94.9375 38.4948 95.4062 29.4062C95.901 20.3177 96.2917 11.1771 96.5781 1.98438L115.016 1.04688L114.859 7.29688C115.589 6.41146 116.37 5.57812 117.203 4.79688C118.062 4.01562 118.974 3.35156 119.938 2.80469C120.901 2.23177 121.917 1.78906 122.984 1.47656C124.078 1.13802 125.224 0.96875 126.422 0.96875C128.635 0.96875 130.576 1.33333 132.242 2.0625C133.909 2.79167 135.341 3.78125 136.539 5.03125C137.737 6.28125 138.74 7.76562 139.547 9.48438C140.354 11.1771 141.005 12.987 141.5 14.9141C141.995 16.8411 142.372 18.8594 142.633 20.9688C142.893 23.0521 143.062 25.1094 143.141 27.1406C143.245 29.1719 143.297 31.138 143.297 33.0391C143.297 34.9401 143.297 36.6719 143.297 38.2344ZM191.266 26.9844C191.266 30.6302 190.797 33.8984 189.859 36.7891C188.922 39.6797 187.607 42.2448 185.914 44.4844C184.247 46.6979 182.255 48.5859 179.938 50.1484C177.62 51.7109 175.081 53 172.32 54.0156C169.56 55.0052 166.617 55.7344 163.492 56.2031C160.393 56.6719 157.203 56.9062 153.922 56.9062C152.698 56.9062 151.5 56.8802 150.328 56.8281C149.156 56.75 147.958 56.6458 146.734 56.5156L147.828 5.65625C150.693 4.74479 153.635 4.10677 156.656 3.74219C159.703 3.35156 162.724 3.15625 165.719 3.15625C169.443 3.15625 172.867 3.67708 175.992 4.71875C179.117 5.76042 181.812 7.29688 184.078 9.32812C186.344 11.3333 188.102 13.8203 189.352 16.7891C190.628 19.7318 191.266 23.1302 191.266 26.9844ZM164.703 41.9844C166.266 41.75 167.685 41.2812 168.961 40.5781C170.263 39.849 171.383 38.9635 172.32 37.9219C173.258 36.8542 173.974 35.6562 174.469 34.3281C174.99 32.974 175.25 31.5417 175.25 30.0312C175.25 28.5469 175.094 27.1667 174.781 25.8906C174.469 24.5885 173.961 23.4688 173.258 22.5312C172.555 21.5677 171.63 20.8125 170.484 20.2656C169.339 19.6927 167.932 19.3802 166.266 19.3281L164.703 41.9844ZM214.117 3L211.383 56.2031L194.898 57.0625L193.336 4.09375L214.117 3ZM260.914 26.4375C260.914 28.7031 260.758 30.9688 260.445 33.2344C255.992 33.5208 251.565 33.9896 247.164 34.6406C242.763 35.2656 238.362 35.8906 233.961 36.5156C234.638 38.3906 235.693 39.888 237.125 41.0078C238.583 42.1276 240.315 42.6875 242.32 42.6875C243.362 42.6875 244.495 42.4922 245.719 42.1016C246.969 41.7109 248.206 41.2292 249.43 40.6562C250.654 40.0573 251.826 39.4193 252.945 38.7422C254.065 38.0651 255.029 37.4531 255.836 36.9062L253.961 54.6406C252.945 55.4219 251.839 56.0859 250.641 56.6328C249.469 57.1797 248.245 57.6224 246.969 57.9609C245.693 58.2995 244.404 58.5469 243.102 58.7031C241.799 58.8594 240.523 58.9375 239.273 58.9375C236.695 58.9375 234.339 58.5859 232.203 57.8828C230.068 57.1797 228.128 56.2031 226.383 54.9531C224.664 53.6771 223.154 52.1797 221.852 50.4609C220.549 48.7422 219.469 46.8672 218.609 44.8359C217.75 42.8047 217.099 40.6562 216.656 38.3906C216.214 36.125 215.992 33.8333 215.992 31.5156C215.992 29.0938 216.214 26.6719 216.656 24.25C217.099 21.8281 217.763 19.4974 218.648 17.2578C219.56 15.0182 220.693 12.9479 222.047 11.0469C223.427 9.11979 225.029 7.4401 226.852 6.00781C228.674 4.57552 230.732 3.45573 233.023 2.64844C235.341 1.84115 237.893 1.4375 240.68 1.4375C242.997 1.4375 245.107 1.76302 247.008 2.41406C248.935 3.03906 250.641 3.92448 252.125 5.07031C253.635 6.1901 254.938 7.53125 256.031 9.09375C257.151 10.6562 258.062 12.375 258.766 14.25C259.495 16.099 260.029 18.0651 260.367 20.1484C260.732 22.2057 260.914 24.3021 260.914 26.4375ZM245.289 24.4062C245.289 23.6771 245.211 22.9349 245.055 22.1797C244.898 21.3984 244.638 20.6953 244.273 20.0703C243.935 19.4453 243.479 18.9375 242.906 18.5469C242.333 18.1302 241.617 17.9219 240.758 17.9219C239.716 17.9219 238.792 18.2083 237.984 18.7812C237.203 19.3281 236.526 20.0312 235.953 20.8906C235.38 21.724 234.911 22.6354 234.547 23.625C234.182 24.6146 233.909 25.526 233.727 26.3594L245.289 25.2656V24.4062Z" fill="#2CB67D"/>
<path d="M43.2812 69.1406L42.8906 85.7031L31.25 86.1719L28.2812 123.203L11.7969 124.062L11.875 87.0312L0.234375 87.6562L0.703125 69.2188L43.2812 69.1406ZM91.7969 123.438L72.2656 124.375L72.1094 107.891H63.125L62.5781 125H45.0781L46.5625 70.0781L65.1562 70.9375L63.9844 98.9844H72.6562L72.7344 69.6094L90.5469 70.0781L91.7969 123.438ZM141.289 87.3438C141.289 89.375 141.107 91.224 140.742 92.8906C140.404 94.5312 139.857 96.0417 139.102 97.4219C138.346 98.8021 137.37 100.078 136.172 101.25C134.974 102.422 133.529 103.542 131.836 104.609L141.133 121.172L123.555 124.609L117.539 107.969L112.695 108.125L111.992 124.375H95.1953C95.3255 118.438 95.4427 112.526 95.5469 106.641C95.6771 100.755 95.8203 94.8438 95.9766 88.9062C96.0286 85.9115 96.0807 82.9427 96.1328 80C96.1849 77.0573 96.2891 74.0885 96.4453 71.0938C98.2682 70.4167 100.065 69.8568 101.836 69.4141C103.607 68.9714 105.378 68.6328 107.148 68.3984C108.945 68.138 110.755 67.9688 112.578 67.8906C114.427 67.7865 116.315 67.7344 118.242 67.7344C121.211 67.7344 124.076 68.151 126.836 68.9844C129.622 69.7917 132.083 71.0156 134.219 72.6562C136.354 74.2969 138.06 76.3411 139.336 78.7891C140.638 81.237 141.289 84.0885 141.289 87.3438ZM123.789 88.5938C123.789 87.5 123.633 86.4974 123.32 85.5859C123.034 84.6745 122.591 83.8932 121.992 83.2422C121.419 82.5651 120.69 82.0443 119.805 81.6797C118.945 81.2891 117.93 81.0938 116.758 81.0938C116.237 81.0938 115.729 81.1328 115.234 81.2109C114.74 81.263 114.258 81.3542 113.789 81.4844L113.164 96.0156H114.102C115.221 96.0156 116.354 95.8724 117.5 95.5859C118.672 95.2995 119.714 94.8568 120.625 94.2578C121.562 93.6589 122.318 92.8906 122.891 91.9531C123.49 91.0156 123.789 89.8958 123.789 88.5938ZM187.227 93.4375C187.227 95.7031 187.07 97.9688 186.758 100.234C182.305 100.521 177.878 100.99 173.477 101.641C169.076 102.266 164.674 102.891 160.273 103.516C160.951 105.391 162.005 106.888 163.438 108.008C164.896 109.128 166.628 109.688 168.633 109.688C169.674 109.688 170.807 109.492 172.031 109.102C173.281 108.711 174.518 108.229 175.742 107.656C176.966 107.057 178.138 106.419 179.258 105.742C180.378 105.065 181.341 104.453 182.148 103.906L180.273 121.641C179.258 122.422 178.151 123.086 176.953 123.633C175.781 124.18 174.557 124.622 173.281 124.961C172.005 125.299 170.716 125.547 169.414 125.703C168.112 125.859 166.836 125.938 165.586 125.938C163.008 125.938 160.651 125.586 158.516 124.883C156.38 124.18 154.44 123.203 152.695 121.953C150.977 120.677 149.466 119.18 148.164 117.461C146.862 115.742 145.781 113.867 144.922 111.836C144.062 109.805 143.411 107.656 142.969 105.391C142.526 103.125 142.305 100.833 142.305 98.5156C142.305 96.0938 142.526 93.6719 142.969 91.25C143.411 88.8281 144.076 86.4974 144.961 84.2578C145.872 82.0182 147.005 79.9479 148.359 78.0469C149.74 76.1198 151.341 74.4401 153.164 73.0078C154.987 71.5755 157.044 70.4557 159.336 69.6484C161.654 68.8411 164.206 68.4375 166.992 68.4375C169.31 68.4375 171.419 68.763 173.32 69.4141C175.247 70.0391 176.953 70.9245 178.438 72.0703C179.948 73.1901 181.25 74.5312 182.344 76.0938C183.464 77.6562 184.375 79.375 185.078 81.25C185.807 83.099 186.341 85.0651 186.68 87.1484C187.044 89.2057 187.227 91.3021 187.227 93.4375ZM171.602 91.4062C171.602 90.6771 171.523 89.9349 171.367 89.1797C171.211 88.3984 170.951 87.6953 170.586 87.0703C170.247 86.4453 169.792 85.9375 169.219 85.5469C168.646 85.1302 167.93 84.9219 167.07 84.9219C166.029 84.9219 165.104 85.2083 164.297 85.7812C163.516 86.3281 162.839 87.0312 162.266 87.8906C161.693 88.724 161.224 89.6354 160.859 90.625C160.495 91.6146 160.221 92.526 160.039 93.3594L171.602 92.2656V91.4062ZM236.875 121.641L217.5 124.141L215.156 115.312H206.25L204.297 124.141L184.375 122.188L199.922 70.1562L221.641 69.0625L236.875 121.641ZM213.75 103.359L210.781 89.7656L207.891 103.359H213.75ZM281.953 93.9844C281.953 97.6302 281.484 100.898 280.547 103.789C279.609 106.68 278.294 109.245 276.602 111.484C274.935 113.698 272.943 115.586 270.625 117.148C268.307 118.711 265.768 120 263.008 121.016C260.247 122.005 257.305 122.734 254.18 123.203C251.081 123.672 247.891 123.906 244.609 123.906C243.385 123.906 242.188 123.88 241.016 123.828C239.844 123.75 238.646 123.646 237.422 123.516L238.516 72.6562C241.38 71.7448 244.323 71.1068 247.344 70.7422C250.391 70.3516 253.411 70.1562 256.406 70.1562C260.13 70.1562 263.555 70.6771 266.68 71.7188C269.805 72.7604 272.5 74.2969 274.766 76.3281C277.031 78.3333 278.789 80.8203 280.039 83.7891C281.315 86.7318 281.953 90.1302 281.953 93.9844ZM255.391 108.984C256.953 108.75 258.372 108.281 259.648 107.578C260.951 106.849 262.07 105.964 263.008 104.922C263.945 103.854 264.661 102.656 265.156 101.328C265.677 99.974 265.938 98.5417 265.938 97.0312C265.938 95.5469 265.781 94.1667 265.469 92.8906C265.156 91.5885 264.648 90.4688 263.945 89.5312C263.242 88.5677 262.318 87.8125 261.172 87.2656C260.026 86.6927 258.62 86.3802 256.953 86.3281L255.391 108.984ZM324.453 105C324.453 108.568 323.828 111.654 322.578 114.258C321.354 116.836 319.661 118.971 317.5 120.664C315.365 122.331 312.852 123.568 309.961 124.375C307.096 125.156 304.01 125.547 300.703 125.547C299.427 125.547 298.021 125.378 296.484 125.039C294.974 124.701 293.438 124.284 291.875 123.789C290.312 123.268 288.802 122.721 287.344 122.148C285.911 121.549 284.635 120.99 283.516 120.469L285.234 105.156C287.448 106.484 289.896 107.5 292.578 108.203C295.286 108.88 297.943 109.219 300.547 109.219C301.042 109.219 301.641 109.206 302.344 109.18C303.047 109.128 303.711 109.01 304.336 108.828C304.987 108.62 305.534 108.32 305.977 107.93C306.419 107.539 306.641 106.979 306.641 106.25C306.641 105.755 306.484 105.339 306.172 105C305.859 104.635 305.456 104.349 304.961 104.141C304.466 103.906 303.906 103.737 303.281 103.633C302.656 103.503 302.044 103.411 301.445 103.359C300.846 103.307 300.286 103.281 299.766 103.281C299.245 103.281 298.828 103.281 298.516 103.281C296.276 103.281 294.232 102.93 292.383 102.227C290.56 101.523 288.984 100.534 287.656 99.2578C286.354 97.9557 285.339 96.3932 284.609 94.5703C283.88 92.7214 283.516 90.6771 283.516 88.4375C283.516 85.3646 284.128 82.6172 285.352 80.1953C286.602 77.7474 288.255 75.6771 290.312 73.9844C292.396 72.2656 294.779 70.9505 297.461 70.0391C300.143 69.1276 302.917 68.6719 305.781 68.6719C307.057 68.6719 308.372 68.724 309.727 68.8281C311.081 68.9062 312.422 69.0625 313.75 69.2969C315.104 69.5312 316.419 69.8307 317.695 70.1953C318.971 70.5599 320.182 71.0156 321.328 71.5625L319.844 87.4219C318.073 86.8229 316.211 86.3281 314.258 85.9375C312.331 85.5208 310.443 85.3125 308.594 85.3125C308.255 85.3125 307.812 85.3255 307.266 85.3516C306.745 85.3516 306.185 85.3906 305.586 85.4688C305.013 85.5208 304.427 85.612 303.828 85.7422C303.229 85.8724 302.695 86.0547 302.227 86.2891C301.758 86.4974 301.38 86.7839 301.094 87.1484C300.807 87.513 300.677 87.9427 300.703 88.4375C300.729 89.0104 300.938 89.4531 301.328 89.7656C301.745 90.0781 302.266 90.3125 302.891 90.4688C303.542 90.599 304.245 90.6641 305 90.6641C305.781 90.6641 306.549 90.651 307.305 90.625C308.06 90.5729 308.763 90.5339 309.414 90.5078C310.065 90.4557 310.599 90.4427 311.016 90.4688C313.099 90.599 314.974 91.0417 316.641 91.7969C318.307 92.5521 319.714 93.5547 320.859 94.8047C322.031 96.0547 322.917 97.5521 323.516 99.2969C324.141 101.016 324.453 102.917 324.453 105Z" fill="#2CB67D"/>
</svg>
