<svg width="91" height="87" viewBox="0 0 91 87" fill="none" xmlns="http://www.w3.org/2000/svg">
<path d="M30.8179 8C30.8179 3.58173 34.3996 0 38.8179 0H51.8913C56.3096 0 59.8913 3.58172 59.8913 8V24.9565C59.8913 27.5401 58.6436 29.9647 56.5412 31.4664L50.2035 35.9933C47.4668 37.9481 43.7997 37.9826 41.0268 36.0796L34.2911 31.4571C32.1171 29.9651 30.8179 27.4977 30.8179 24.8609V8Z" fill="#531EF5"/>
<path d="M59.8911 78.0574C59.8911 82.4756 56.3094 86.0574 51.8911 86.0574H38.8177C34.3994 86.0574 30.8177 82.4757 30.8177 78.0574L30.8177 61.1009C30.8177 58.5173 32.0654 56.0927 34.1678 54.591L40.5055 50.064C43.2422 48.1093 46.9092 48.0748 49.6822 49.9778L56.4179 54.6003C58.5919 56.0923 59.8911 58.5597 59.8911 61.1964V78.0574Z" fill="#6238E0"/>
<path d="M8 57.2747C3.58173 57.2747 0 53.6929 0 49.2747L0 36.2012C0 31.7829 3.58172 28.2012 8 28.2012H24.9565C27.5401 28.2012 29.9647 29.4489 31.4664 31.5513L35.9933 37.8891C37.9481 40.6257 37.9826 44.2928 36.0796 47.0657L31.4571 53.8014C29.9651 55.9754 27.4977 57.2747 24.8609 57.2747H8Z" fill="#6238E0"/>
<path d="M83 28.2013C87.4183 28.2013 91 31.783 91 36.2013V49.2747C91 53.693 87.4183 57.2747 83 57.2747H66.0435C63.4599 57.2747 61.0353 56.027 59.5336 53.9246L55.0067 47.5869C53.0519 44.8502 53.0174 41.1832 54.9204 38.4102L59.5429 31.6746C61.0349 29.5005 63.5023 28.2013 66.1391 28.2013L83 28.2013Z" fill="#6238E0"/>
<path d="M39 4.5H51C54.0376 4.5 56.5 6.96243 56.5 10V23.7961C56.5 25.6127 55.6031 27.312 54.1033 28.337L48.2765 32.3192C46.4359 33.5771 44.018 33.5994 42.1544 32.3758L35.9812 28.3223C34.4326 27.3055 33.5 25.5774 33.5 23.7248V10C33.5 6.96244 35.9624 4.5 39 4.5Z" fill="#FFFFFE" stroke="#16161A"/>
<path d="M45 9L50.1962 14.25H39.8038L45 9Z" fill="#16161A"/>
<path d="M4.5 49L4.5 37C4.5 33.9624 6.96243 31.5 10 31.5H23.7961C25.6127 31.5 27.312 32.3969 28.337 33.8967L32.3192 39.7235C33.5771 41.5641 33.5994 43.982 32.3758 45.8456L28.3223 52.0188C27.3055 53.5674 25.5774 54.5 23.7248 54.5H10C6.96244 54.5 4.5 52.0376 4.5 49Z" fill="#FFFFFE" stroke="#16161A"/>
<path d="M9 43L14.25 37.8038V48.1962L9 43Z" fill="#16161A"/>
<path d="M87.5 37V49C87.5 52.0376 85.0376 54.5 82 54.5H68.2039C66.3873 54.5 64.688 53.6031 63.663 52.1033L59.6808 46.2765C58.4229 44.4359 58.4006 42.018 59.6242 40.1544L63.6777 33.9812C64.6945 32.4326 66.4226 31.5 68.2752 31.5L82 31.5C85.0376 31.5 87.5 33.9624 87.5 37Z" fill="#FFFFFE" stroke="#16161A"/>
<path d="M83 43L77.75 48.1962V37.8038L83 43Z" fill="#16161A"/>
<path d="M51 80.5H39C35.9624 80.5 33.5 78.0376 33.5 75V61.2039C33.5 59.3873 34.3969 57.688 35.8967 56.663L41.7235 52.6808C43.5641 51.4229 45.982 51.4006 47.8456 52.6242L54.0188 56.6777C55.5674 57.6945 56.5 59.4226 56.5 61.2752V75C56.5 78.0376 54.0376 80.5 51 80.5Z" fill="#FFFFFE" stroke="#16161A"/>
<path d="M45 76L39.8038 70.75H50.1962L45 76Z" fill="#16161A"/>
</svg>
