<svg width="296" height="23" viewBox="0 0 296 23" fill="none" xmlns="http://www.w3.org/2000/svg">
<path d="M8.65723 1.375L7.0459 21.3262L0.864258 21.6484V1.78516L8.65723 1.375ZM27.8613 14.5879C27.8613 15.6914 27.8467 16.7852 27.8174 17.8691C27.7979 18.9434 27.7637 20.0273 27.7148 21.1211L19.2773 20.9746C19.5703 19.2461 19.8242 17.5225 20.0391 15.8037C20.2539 14.0752 20.3613 12.332 20.3613 10.5742C20.3613 10.4473 20.3564 10.2422 20.3467 9.95898C20.3369 9.67578 20.3174 9.3584 20.2881 9.00684C20.2588 8.64551 20.2148 8.2793 20.1562 7.9082C20.1074 7.52734 20.0342 7.18066 19.9365 6.86816C19.8486 6.55566 19.7363 6.30176 19.5996 6.10645C19.4727 5.90137 19.3164 5.79883 19.1309 5.79883C18.7988 5.79883 18.5156 5.89648 18.2812 6.0918C18.0566 6.28711 17.8662 6.54102 17.71 6.85352C17.5635 7.15625 17.4463 7.49805 17.3584 7.87891C17.2705 8.25977 17.2021 8.64062 17.1533 9.02148C17.1143 9.40234 17.085 9.76367 17.0654 10.1055C17.0557 10.4375 17.0508 10.7109 17.0508 10.9258C17.002 12.6543 16.9629 14.373 16.9336 16.082C16.9043 17.7812 16.8652 19.5 16.8164 21.2383L9.3457 21.5605C9.54102 18.1133 9.72656 14.6855 9.90234 11.2773C10.0879 7.86914 10.2344 4.44141 10.3418 0.994141L17.2559 0.642578L17.1973 2.98633C17.4707 2.6543 17.7637 2.3418 18.0762 2.04883C18.3984 1.75586 18.7402 1.50684 19.1016 1.30176C19.4629 1.08691 19.8438 0.920898 20.2441 0.803711C20.6543 0.676758 21.084 0.613281 21.5332 0.613281C22.3633 0.613281 23.0908 0.75 23.7158 1.02344C24.3408 1.29688 24.8779 1.66797 25.3271 2.13672C25.7764 2.60547 26.1523 3.16211 26.4551 3.80664C26.7578 4.44141 27.002 5.12012 27.1875 5.84277C27.373 6.56543 27.5146 7.32227 27.6123 8.11328C27.71 8.89453 27.7734 9.66602 27.8027 10.4277C27.8418 11.1895 27.8613 11.9268 27.8613 12.6396C27.8613 13.3525 27.8613 14.002 27.8613 14.5879ZM45.8496 10.3691C45.8496 11.7363 45.6738 12.9619 45.3223 14.0459C44.9707 15.1299 44.4775 16.0918 43.8428 16.9316C43.2178 17.7617 42.4707 18.4697 41.6016 19.0557C40.7324 19.6416 39.7803 20.125 38.7451 20.5059C37.71 20.877 36.6064 21.1504 35.4346 21.3262C34.2725 21.502 33.0762 21.5898 31.8457 21.5898C31.3867 21.5898 30.9375 21.5801 30.498 21.5605C30.0586 21.5312 29.6094 21.4922 29.1504 21.4434L29.5605 2.37109C30.6348 2.0293 31.7383 1.79004 32.8711 1.65332C34.0137 1.50684 35.1465 1.43359 36.2695 1.43359C37.666 1.43359 38.9502 1.62891 40.1221 2.01953C41.2939 2.41016 42.3047 2.98633 43.1543 3.74805C44.0039 4.5 44.6631 5.43262 45.1318 6.5459C45.6104 7.64941 45.8496 8.92383 45.8496 10.3691ZM35.8887 15.9941C36.4746 15.9062 37.0068 15.7305 37.4854 15.4668C37.9736 15.1934 38.3936 14.8613 38.7451 14.4707C39.0967 14.0703 39.3652 13.6211 39.5508 13.123C39.7461 12.6152 39.8438 12.0781 39.8438 11.5117C39.8438 10.9551 39.7852 10.4375 39.668 9.95898C39.5508 9.4707 39.3604 9.05078 39.0967 8.69922C38.833 8.33789 38.4863 8.05469 38.0566 7.84961C37.627 7.63477 37.0996 7.51758 36.4746 7.49805L35.8887 15.9941ZM54.4189 1.375L53.3936 21.3262L47.2119 21.6484L46.626 1.78516L54.4189 1.375ZM71.9678 10.1641C71.9678 11.0137 71.9092 11.8633 71.792 12.7129C70.1221 12.8203 68.4619 12.9961 66.8115 13.2402C65.1611 13.4746 63.5107 13.709 61.8604 13.9434C62.1143 14.6465 62.5098 15.208 63.0469 15.6279C63.5938 16.0479 64.2432 16.2578 64.9951 16.2578C65.3857 16.2578 65.8105 16.1846 66.2695 16.0381C66.7383 15.8916 67.2021 15.7109 67.6611 15.4961C68.1201 15.2715 68.5596 15.0322 68.9795 14.7783C69.3994 14.5244 69.7607 14.2949 70.0635 14.0898L69.3604 20.7402C68.9795 21.0332 68.5645 21.2822 68.1152 21.4873C67.6758 21.6924 67.2168 21.8584 66.7383 21.9854C66.2598 22.1123 65.7764 22.2051 65.2881 22.2637C64.7998 22.3223 64.3213 22.3516 63.8525 22.3516C62.8857 22.3516 62.002 22.2197 61.2012 21.9561C60.4004 21.6924 59.6729 21.3262 59.0186 20.8574C58.374 20.3789 57.8076 19.8174 57.3193 19.1729C56.8311 18.5283 56.4258 17.8252 56.1035 17.0635C55.7812 16.3018 55.5371 15.4961 55.3711 14.6465C55.2051 13.7969 55.1221 12.9375 55.1221 12.0684C55.1221 11.1602 55.2051 10.252 55.3711 9.34375C55.5371 8.43555 55.7861 7.56152 56.1182 6.72168C56.46 5.88184 56.8848 5.10547 57.3926 4.39258C57.9102 3.66992 58.5107 3.04004 59.1943 2.50293C59.8779 1.96582 60.6494 1.5459 61.5088 1.24316C62.3779 0.94043 63.335 0.789062 64.3799 0.789062C65.249 0.789062 66.04 0.911133 66.7529 1.15527C67.4756 1.38965 68.1152 1.72168 68.6719 2.15137C69.2383 2.57129 69.7266 3.07422 70.1367 3.66016C70.5566 4.24609 70.8984 4.89062 71.1621 5.59375C71.4355 6.28711 71.6357 7.02441 71.7627 7.80566C71.8994 8.57715 71.9678 9.36328 71.9678 10.1641ZM66.1084 9.40234C66.1084 9.12891 66.0791 8.85059 66.0205 8.56738C65.9619 8.27441 65.8643 8.01074 65.7275 7.77637C65.6006 7.54199 65.4297 7.35156 65.2148 7.20508C65 7.04883 64.7314 6.9707 64.4092 6.9707C64.0186 6.9707 63.6719 7.07812 63.3691 7.29297C63.0762 7.49805 62.8223 7.76172 62.6074 8.08398C62.3926 8.39648 62.2168 8.73828 62.0801 9.10938C61.9434 9.48047 61.8408 9.82227 61.7725 10.1348L66.1084 9.72461V9.40234ZM94.2773 1.05273L94.1309 7.26367L89.7656 7.43945L88.6523 21.3262L82.4707 21.6484L82.5 7.76172L78.1348 7.99609L78.3105 1.08203L94.2773 1.05273ZM112.471 21.4141L105.146 21.7656L105.088 15.584H101.719L101.514 22H94.9512L95.5078 1.4043L102.48 1.72656L102.041 12.2441H105.293L105.322 1.22852L112.002 1.4043L112.471 21.4141ZM131.03 7.87891C131.03 8.64062 130.962 9.33398 130.825 9.95898C130.698 10.5742 130.493 11.1406 130.21 11.6582C129.927 12.1758 129.561 12.6543 129.111 13.0938C128.662 13.5332 128.12 13.9531 127.485 14.3535L130.972 20.5645L124.38 21.8535L122.124 15.6133L120.308 15.6719L120.044 21.7656H113.745C113.794 19.5391 113.838 17.3223 113.877 15.1152C113.926 12.9082 113.979 10.6914 114.038 8.46484C114.058 7.3418 114.077 6.22852 114.097 5.125C114.116 4.02148 114.155 2.9082 114.214 1.78516C114.897 1.53125 115.571 1.32129 116.235 1.15527C116.899 0.989258 117.563 0.862305 118.228 0.774414C118.901 0.676758 119.58 0.613281 120.264 0.583984C120.957 0.544922 121.665 0.525391 122.388 0.525391C123.501 0.525391 124.575 0.681641 125.61 0.994141C126.655 1.29688 127.578 1.75586 128.379 2.37109C129.18 2.98633 129.819 3.75293 130.298 4.6709C130.786 5.58887 131.03 6.6582 131.03 7.87891ZM124.468 8.34766C124.468 7.9375 124.409 7.56152 124.292 7.21973C124.185 6.87793 124.019 6.58496 123.794 6.34082C123.579 6.08691 123.306 5.8916 122.974 5.75488C122.651 5.6084 122.271 5.53516 121.831 5.53516C121.636 5.53516 121.445 5.5498 121.26 5.5791C121.074 5.59863 120.894 5.63281 120.718 5.68164L120.483 11.1309H120.835C121.255 11.1309 121.68 11.0771 122.109 10.9697C122.549 10.8623 122.939 10.6963 123.281 10.4717C123.633 10.2471 123.916 9.95898 124.131 9.60742C124.355 9.25586 124.468 8.83594 124.468 8.34766ZM148.257 10.1641C148.257 11.0137 148.198 11.8633 148.081 12.7129C146.411 12.8203 144.751 12.9961 143.101 13.2402C141.45 13.4746 139.8 13.709 138.149 13.9434C138.403 14.6465 138.799 15.208 139.336 15.6279C139.883 16.0479 140.532 16.2578 141.284 16.2578C141.675 16.2578 142.1 16.1846 142.559 16.0381C143.027 15.8916 143.491 15.7109 143.95 15.4961C144.409 15.2715 144.849 15.0322 145.269 14.7783C145.688 14.5244 146.05 14.2949 146.353 14.0898L145.649 20.7402C145.269 21.0332 144.854 21.2822 144.404 21.4873C143.965 21.6924 143.506 21.8584 143.027 21.9854C142.549 22.1123 142.065 22.2051 141.577 22.2637C141.089 22.3223 140.61 22.3516 140.142 22.3516C139.175 22.3516 138.291 22.2197 137.49 21.9561C136.689 21.6924 135.962 21.3262 135.308 20.8574C134.663 20.3789 134.097 19.8174 133.608 19.1729C133.12 18.5283 132.715 17.8252 132.393 17.0635C132.07 16.3018 131.826 15.4961 131.66 14.6465C131.494 13.7969 131.411 12.9375 131.411 12.0684C131.411 11.1602 131.494 10.252 131.66 9.34375C131.826 8.43555 132.075 7.56152 132.407 6.72168C132.749 5.88184 133.174 5.10547 133.682 4.39258C134.199 3.66992 134.8 3.04004 135.483 2.50293C136.167 1.96582 136.938 1.5459 137.798 1.24316C138.667 0.94043 139.624 0.789062 140.669 0.789062C141.538 0.789062 142.329 0.911133 143.042 1.15527C143.765 1.38965 144.404 1.72168 144.961 2.15137C145.527 2.57129 146.016 3.07422 146.426 3.66016C146.846 4.24609 147.188 4.89062 147.451 5.59375C147.725 6.28711 147.925 7.02441 148.052 7.80566C148.188 8.57715 148.257 9.36328 148.257 10.1641ZM142.397 9.40234C142.397 9.12891 142.368 8.85059 142.31 8.56738C142.251 8.27441 142.153 8.01074 142.017 7.77637C141.89 7.54199 141.719 7.35156 141.504 7.20508C141.289 7.04883 141.021 6.9707 140.698 6.9707C140.308 6.9707 139.961 7.07812 139.658 7.29297C139.365 7.49805 139.111 7.76172 138.896 8.08398C138.682 8.39648 138.506 8.73828 138.369 9.10938C138.232 9.48047 138.13 9.82227 138.062 10.1348L142.397 9.72461V9.40234ZM166.875 20.7402L159.609 21.6777L158.73 18.3672H155.391L154.658 21.6777L147.188 20.9453L153.018 1.43359L161.162 1.02344L166.875 20.7402ZM158.203 13.8848L157.09 8.78711L156.006 13.8848H158.203ZM183.779 10.3691C183.779 11.7363 183.604 12.9619 183.252 14.0459C182.9 15.1299 182.407 16.0918 181.772 16.9316C181.147 17.7617 180.4 18.4697 179.531 19.0557C178.662 19.6416 177.71 20.125 176.675 20.5059C175.64 20.877 174.536 21.1504 173.364 21.3262C172.202 21.502 171.006 21.5898 169.775 21.5898C169.316 21.5898 168.867 21.5801 168.428 21.5605C167.988 21.5312 167.539 21.4922 167.08 21.4434L167.49 2.37109C168.564 2.0293 169.668 1.79004 170.801 1.65332C171.943 1.50684 173.076 1.43359 174.199 1.43359C175.596 1.43359 176.88 1.62891 178.052 2.01953C179.224 2.41016 180.234 2.98633 181.084 3.74805C181.934 4.5 182.593 5.43262 183.062 6.5459C183.54 7.64941 183.779 8.92383 183.779 10.3691ZM173.818 15.9941C174.404 15.9062 174.937 15.7305 175.415 15.4668C175.903 15.1934 176.323 14.8613 176.675 14.4707C177.026 14.0703 177.295 13.6211 177.48 13.123C177.676 12.6152 177.773 12.0781 177.773 11.5117C177.773 10.9551 177.715 10.4375 177.598 9.95898C177.48 9.4707 177.29 9.05078 177.026 8.69922C176.763 8.33789 176.416 8.05469 175.986 7.84961C175.557 7.63477 175.029 7.51758 174.404 7.49805L173.818 15.9941ZM199.717 14.5C199.717 15.8379 199.482 16.9951 199.014 17.9717C198.555 18.9385 197.92 19.7393 197.109 20.374C196.309 20.999 195.366 21.4629 194.282 21.7656C193.208 22.0586 192.051 22.2051 190.811 22.2051C190.332 22.2051 189.805 22.1416 189.229 22.0146C188.662 21.8877 188.086 21.7314 187.5 21.5459C186.914 21.3506 186.348 21.1455 185.801 20.9307C185.264 20.7061 184.785 20.4961 184.365 20.3008L185.01 14.5586C185.84 15.0566 186.758 15.4375 187.764 15.7012C188.779 15.9551 189.775 16.082 190.752 16.082C190.938 16.082 191.162 16.0771 191.426 16.0674C191.689 16.0479 191.938 16.0039 192.173 15.9355C192.417 15.8574 192.622 15.7451 192.788 15.5986C192.954 15.4521 193.037 15.2422 193.037 14.9688C193.037 14.7832 192.979 14.627 192.861 14.5C192.744 14.3633 192.593 14.2559 192.407 14.1777C192.222 14.0898 192.012 14.0264 191.777 13.9873C191.543 13.9385 191.313 13.9043 191.089 13.8848C190.864 13.8652 190.654 13.8555 190.459 13.8555C190.264 13.8555 190.107 13.8555 189.99 13.8555C189.15 13.8555 188.384 13.7236 187.69 13.46C187.007 13.1963 186.416 12.8252 185.918 12.3467C185.43 11.8584 185.049 11.2725 184.775 10.5889C184.502 9.89551 184.365 9.12891 184.365 8.28906C184.365 7.13672 184.595 6.10645 185.054 5.19824C185.522 4.28027 186.143 3.50391 186.914 2.86914C187.695 2.22461 188.589 1.73145 189.595 1.38965C190.601 1.04785 191.641 0.876953 192.715 0.876953C193.193 0.876953 193.687 0.896484 194.194 0.935547C194.702 0.964844 195.205 1.02344 195.703 1.11133C196.211 1.19922 196.704 1.31152 197.183 1.44824C197.661 1.58496 198.115 1.75586 198.545 1.96094L197.988 7.9082C197.324 7.68359 196.626 7.49805 195.894 7.35156C195.171 7.19531 194.463 7.11719 193.77 7.11719C193.643 7.11719 193.477 7.12207 193.271 7.13184C193.076 7.13184 192.866 7.14648 192.642 7.17578C192.427 7.19531 192.207 7.22949 191.982 7.27832C191.758 7.32715 191.558 7.39551 191.382 7.4834C191.206 7.56152 191.064 7.66895 190.957 7.80566C190.85 7.94238 190.801 8.10352 190.811 8.28906C190.82 8.50391 190.898 8.66992 191.045 8.78711C191.201 8.9043 191.396 8.99219 191.631 9.05078C191.875 9.09961 192.139 9.12402 192.422 9.12402C192.715 9.12402 193.003 9.11914 193.286 9.10938C193.569 9.08984 193.833 9.0752 194.077 9.06543C194.321 9.0459 194.521 9.04102 194.678 9.05078C195.459 9.09961 196.162 9.26562 196.787 9.54883C197.412 9.83203 197.939 10.208 198.369 10.6768C198.809 11.1455 199.141 11.707 199.365 12.3613C199.6 13.0059 199.717 13.7188 199.717 14.5ZM227.974 11.6875C227.974 12.791 227.783 13.8359 227.402 14.8223C227.021 15.8086 226.489 16.6729 225.806 17.415C225.122 18.1572 224.307 18.748 223.359 19.1875C222.412 19.6172 221.372 19.832 220.239 19.832C219.146 19.832 218.125 19.627 217.178 19.2168C216.24 18.8066 215.425 18.25 214.731 17.5469C214.038 16.8438 213.491 16.0186 213.091 15.0713C212.7 14.1143 212.505 13.0938 212.505 12.0098C212.505 11.3066 212.588 10.6182 212.754 9.94434C212.93 9.26074 213.179 8.62109 213.501 8.02539C213.823 7.41992 214.209 6.86816 214.658 6.37012C215.117 5.8623 215.625 5.42773 216.182 5.06641C216.748 4.69531 217.358 4.40723 218.013 4.20215C218.677 3.99707 219.37 3.89453 220.093 3.89453C221.274 3.89453 222.349 4.08008 223.315 4.45117C224.292 4.8125 225.122 5.33496 225.806 6.01855C226.499 6.69238 227.031 7.5127 227.402 8.47949C227.783 9.43652 227.974 10.5059 227.974 11.6875ZM226.274 11.7168C226.274 10.7988 226.128 9.96387 225.835 9.21191C225.542 8.45996 225.127 7.82031 224.59 7.29297C224.053 6.75586 223.403 6.3457 222.642 6.0625C221.89 5.76953 221.05 5.62305 220.122 5.62305C219.272 5.62305 218.486 5.79883 217.764 6.15039C217.041 6.49219 216.416 6.95605 215.889 7.54199C215.361 8.12793 214.946 8.80176 214.644 9.56348C214.351 10.3252 214.204 11.1211 214.204 11.9512C214.204 12.8008 214.355 13.5967 214.658 14.3389C214.971 15.0811 215.396 15.7256 215.933 16.2725C216.479 16.8193 217.119 17.2539 217.852 17.5762C218.594 17.8887 219.39 18.0449 220.239 18.0449C221.128 18.0449 221.938 17.8789 222.671 17.5469C223.413 17.2051 224.048 16.7461 224.575 16.1699C225.112 15.5938 225.527 14.9248 225.82 14.1631C226.123 13.3916 226.274 12.5762 226.274 11.7168ZM222.788 10.1055C222.524 10.0469 222.251 10.0176 221.968 10.0176C221.626 10.0176 221.294 10.0615 220.972 10.1494C220.659 10.2373 220.381 10.3691 220.137 10.5449C219.893 10.7207 219.697 10.9502 219.551 11.2334C219.404 11.5068 219.331 11.834 219.331 12.2148C219.331 12.7617 219.487 13.167 219.8 13.4307C220.112 13.6943 220.532 13.8262 221.06 13.8262C221.411 13.8262 221.782 13.7578 222.173 13.6211C222.563 13.4844 222.915 13.3281 223.228 13.1523L223.11 16.5801C222.729 16.7754 222.295 16.9316 221.807 17.0488C221.328 17.166 220.874 17.2246 220.444 17.2246C219.751 17.2246 219.121 17.0977 218.555 16.8438C217.988 16.5801 217.5 16.2285 217.09 15.7891C216.689 15.3398 216.377 14.8174 216.152 14.2217C215.928 13.626 215.815 12.9961 215.815 12.332C215.815 11.5312 215.928 10.7842 216.152 10.0908C216.387 9.39746 216.724 8.79688 217.163 8.28906C217.603 7.77148 218.145 7.37109 218.789 7.08789C219.443 6.79492 220.19 6.64844 221.03 6.64844C221.372 6.64844 221.714 6.67773 222.056 6.73633C222.407 6.78516 222.739 6.88281 223.052 7.0293L222.788 10.1055ZM249.492 8.20117C249.492 8.98242 249.351 9.72949 249.067 10.4424C248.784 11.1455 248.408 11.8096 247.939 12.4346C247.48 13.0498 246.953 13.6211 246.357 14.1484C245.771 14.666 245.176 15.1348 244.57 15.5547H249.199L248.848 21.6484L235.137 21.1797V15.8477C235.654 15.6719 236.196 15.4619 236.763 15.2178C237.339 14.9639 237.9 14.6758 238.447 14.3535C239.004 14.0312 239.526 13.6699 240.015 13.2695C240.513 12.8691 240.947 12.4346 241.318 11.9658C241.699 11.4873 241.997 10.9697 242.212 10.4131C242.437 9.85645 242.549 9.25586 242.549 8.61133C242.549 8.24023 242.48 7.91309 242.344 7.62988C242.217 7.34668 242.036 7.1123 241.802 6.92676C241.567 6.73145 241.294 6.58984 240.981 6.50195C240.679 6.4043 240.352 6.35547 240 6.35547C239.707 6.35547 239.409 6.38965 239.106 6.45801C238.804 6.5166 238.506 6.60449 238.213 6.72168C237.92 6.83887 237.642 6.98535 237.378 7.16113C237.124 7.32715 236.895 7.51758 236.689 7.73242L235.4 1.99023C235.762 1.62891 236.177 1.32617 236.646 1.08203C237.114 0.837891 237.607 0.642578 238.125 0.496094C238.643 0.339844 239.17 0.227539 239.707 0.15918C240.244 0.0908203 240.771 0.0566406 241.289 0.0566406C242.441 0.0566406 243.516 0.266602 244.512 0.686523C245.508 1.09668 246.372 1.66797 247.104 2.40039C247.847 3.12305 248.428 3.98242 248.848 4.97852C249.277 5.97461 249.492 7.04883 249.492 8.20117ZM268.579 11.5117C268.579 12.3711 268.481 13.2256 268.286 14.0752C268.101 14.9248 267.827 15.7402 267.466 16.5215C267.104 17.3027 266.66 18.0303 266.133 18.7041C265.615 19.3779 265.02 19.9639 264.346 20.4619C263.672 20.96 262.93 21.3506 262.119 21.6338C261.318 21.917 260.454 22.0586 259.526 22.0586C258.589 22.0586 257.715 21.917 256.904 21.6338C256.094 21.3506 255.352 20.96 254.678 20.4619C254.014 19.9639 253.418 19.3779 252.891 18.7041C252.363 18.0303 251.919 17.3027 251.558 16.5215C251.196 15.7402 250.918 14.9248 250.723 14.0752C250.537 13.2158 250.444 12.3613 250.444 11.5117C250.444 10.6621 250.537 9.80762 250.723 8.94824C250.918 8.08887 251.196 7.26855 251.558 6.4873C251.919 5.70605 252.363 4.97852 252.891 4.30469C253.418 3.62109 254.014 3.03027 254.678 2.53223C255.352 2.03418 256.094 1.64355 256.904 1.36035C257.725 1.07715 258.599 0.935547 259.526 0.935547C260.454 0.935547 261.318 1.07715 262.119 1.36035C262.93 1.64355 263.672 2.03418 264.346 2.53223C265.02 3.03027 265.615 3.62109 266.133 4.30469C266.66 4.97852 267.104 5.70605 267.466 6.4873C267.827 7.26855 268.101 8.08887 268.286 8.94824C268.481 9.80762 268.579 10.6621 268.579 11.5117ZM262.397 11.9512C262.397 11.5215 262.339 11.043 262.222 10.5156C262.104 9.98828 261.924 9.49512 261.68 9.03613C261.436 8.57715 261.123 8.19141 260.742 7.87891C260.361 7.56641 259.907 7.41016 259.38 7.41016C258.843 7.41016 258.384 7.56641 258.003 7.87891C257.622 8.19141 257.305 8.57715 257.051 9.03613C256.807 9.49512 256.626 9.98828 256.509 10.5156C256.392 11.043 256.333 11.5215 256.333 11.9512C256.333 12.3809 256.392 12.8594 256.509 13.3867C256.626 13.9141 256.807 14.4072 257.051 14.8662C257.305 15.3252 257.622 15.7109 258.003 16.0234C258.384 16.3359 258.843 16.4922 259.38 16.4922C259.907 16.4922 260.361 16.3359 260.742 16.0234C261.123 15.7109 261.436 15.3252 261.68 14.8662C261.924 14.4072 262.104 13.9141 262.222 13.3867C262.339 12.8594 262.397 12.3809 262.397 11.9512ZM283.77 8.20117C283.77 8.98242 283.628 9.72949 283.345 10.4424C283.062 11.1455 282.686 11.8096 282.217 12.4346C281.758 13.0498 281.23 13.6211 280.635 14.1484C280.049 14.666 279.453 15.1348 278.848 15.5547H283.477L283.125 21.6484L269.414 21.1797V15.8477C269.932 15.6719 270.474 15.4619 271.04 15.2178C271.616 14.9639 272.178 14.6758 272.725 14.3535C273.281 14.0312 273.804 13.6699 274.292 13.2695C274.79 12.8691 275.225 12.4346 275.596 11.9658C275.977 11.4873 276.274 10.9697 276.489 10.4131C276.714 9.85645 276.826 9.25586 276.826 8.61133C276.826 8.24023 276.758 7.91309 276.621 7.62988C276.494 7.34668 276.313 7.1123 276.079 6.92676C275.845 6.73145 275.571 6.58984 275.259 6.50195C274.956 6.4043 274.629 6.35547 274.277 6.35547C273.984 6.35547 273.687 6.38965 273.384 6.45801C273.081 6.5166 272.783 6.60449 272.49 6.72168C272.197 6.83887 271.919 6.98535 271.655 7.16113C271.401 7.32715 271.172 7.51758 270.967 7.73242L269.678 1.99023C270.039 1.62891 270.454 1.32617 270.923 1.08203C271.392 0.837891 271.885 0.642578 272.402 0.496094C272.92 0.339844 273.447 0.227539 273.984 0.15918C274.521 0.0908203 275.049 0.0566406 275.566 0.0566406C276.719 0.0566406 277.793 0.266602 278.789 0.686523C279.785 1.09668 280.649 1.66797 281.382 2.40039C282.124 3.12305 282.705 3.98242 283.125 4.97852C283.555 5.97461 283.77 7.04883 283.77 8.20117ZM295.283 0.935547L294.434 21.7656L288.047 21.4727L288.398 7.61523L286.055 9.22656L283.857 4.2168L288.633 0.642578L295.283 0.935547Z" fill="#2CB67D"/>
</svg>
