<svg width="248" height="101" viewBox="0 0 248 101" fill="none" xmlns="http://www.w3.org/2000/svg">
<path d="M73.4287 1.625L70.7432 34.877L60.4404 35.4141V2.30859L73.4287 1.625ZM105.436 23.6465C105.436 25.4857 105.411 27.3086 105.362 29.1152C105.33 30.9056 105.273 32.7122 105.191 34.5352L91.1289 34.291C91.6172 31.4102 92.0404 28.5374 92.3984 25.6729C92.7565 22.792 92.9355 19.8867 92.9355 16.957C92.9355 16.7454 92.9274 16.4036 92.9111 15.9316C92.8949 15.4596 92.8623 14.9307 92.8135 14.3447C92.7646 13.7425 92.6914 13.1322 92.5938 12.5137C92.5124 11.8789 92.3903 11.3011 92.2275 10.7803C92.0811 10.2594 91.8939 9.83626 91.666 9.51074C91.4544 9.16895 91.194 8.99805 90.8848 8.99805C90.3314 8.99805 89.8594 9.16081 89.4688 9.48633C89.0944 9.81185 88.777 10.235 88.5166 10.7559C88.2725 11.2604 88.0771 11.8301 87.9307 12.4648C87.7842 13.0996 87.6702 13.7344 87.5889 14.3691C87.5238 15.0039 87.4749 15.6061 87.4424 16.1758C87.4261 16.7292 87.418 17.1849 87.418 17.543C87.3366 20.4238 87.2715 23.2884 87.2227 26.1367C87.1738 28.9688 87.1087 31.8333 87.0273 34.7305L74.5762 35.2676C74.9017 29.5221 75.2109 23.8092 75.5039 18.1289C75.8132 12.4486 76.0573 6.73568 76.2363 0.990234L87.7598 0.404297L87.6621 4.31055C88.1178 3.75716 88.6061 3.23633 89.127 2.74805C89.6641 2.25977 90.2337 1.84473 90.8359 1.50293C91.4382 1.14486 92.0729 0.868164 92.7402 0.672852C93.4238 0.461263 94.14 0.355469 94.8887 0.355469C96.2721 0.355469 97.4847 0.583333 98.5264 1.03906C99.568 1.49479 100.463 2.11328 101.212 2.89453C101.961 3.67578 102.587 4.60352 103.092 5.67773C103.596 6.73568 104.003 7.86686 104.312 9.07129C104.622 10.2757 104.858 11.5371 105.021 12.8555C105.183 14.1576 105.289 15.4434 105.338 16.7129C105.403 17.9824 105.436 19.2113 105.436 20.3994C105.436 21.5876 105.436 22.6699 105.436 23.6465ZM135.416 16.6152C135.416 18.8939 135.123 20.9365 134.537 22.7432C133.951 24.5498 133.129 26.153 132.071 27.5527C131.03 28.9362 129.785 30.1162 128.336 31.0928C126.887 32.0693 125.3 32.875 123.575 33.5098C121.85 34.1283 120.011 34.584 118.058 34.877C116.121 35.1699 114.127 35.3164 112.076 35.3164C111.311 35.3164 110.562 35.3001 109.83 35.2676C109.098 35.2188 108.349 35.1536 107.584 35.0723L108.268 3.28516C110.058 2.71549 111.897 2.31673 113.785 2.08887C115.689 1.84473 117.577 1.72266 119.449 1.72266C121.777 1.72266 123.917 2.04818 125.87 2.69922C127.823 3.35026 129.508 4.31055 130.924 5.58008C132.34 6.83333 133.438 8.3877 134.22 10.2432C135.017 12.0824 135.416 14.2064 135.416 16.6152ZM118.814 25.9902C119.791 25.8438 120.678 25.5508 121.476 25.1113C122.289 24.6556 122.989 24.1022 123.575 23.4512C124.161 22.7839 124.609 22.0352 124.918 21.2051C125.243 20.3587 125.406 19.4635 125.406 18.5195C125.406 17.5918 125.309 16.7292 125.113 15.9316C124.918 15.1178 124.601 14.418 124.161 13.832C123.722 13.2298 123.144 12.7578 122.428 12.416C121.712 12.0579 120.833 11.8626 119.791 11.8301L118.814 25.9902ZM149.698 1.625L147.989 34.877L137.687 35.4141L136.71 2.30859L149.698 1.625ZM178.946 16.2734C178.946 17.6895 178.849 19.1055 178.653 20.5215C175.87 20.7005 173.103 20.9935 170.353 21.4004C167.602 21.791 164.851 22.1816 162.101 22.5723C162.524 23.7441 163.183 24.68 164.078 25.3799C164.99 26.0798 166.072 26.4297 167.325 26.4297C167.976 26.4297 168.684 26.3076 169.449 26.0635C170.23 25.8193 171.004 25.5182 171.769 25.1602C172.534 24.7858 173.266 24.387 173.966 23.9639C174.666 23.5407 175.268 23.1582 175.772 22.8164L174.601 33.9004C173.966 34.3887 173.274 34.8037 172.525 35.1455C171.793 35.4873 171.028 35.764 170.23 35.9756C169.433 36.1872 168.627 36.3418 167.813 36.4395C167 36.5371 166.202 36.5859 165.421 36.5859C163.81 36.5859 162.337 36.3662 161.002 35.9268C159.667 35.4873 158.455 34.877 157.364 34.0957C156.29 33.2982 155.346 32.3623 154.532 31.2881C153.718 30.2139 153.043 29.042 152.506 27.7725C151.969 26.5029 151.562 25.1602 151.285 23.7441C151.008 22.3281 150.87 20.8958 150.87 19.4473C150.87 17.9336 151.008 16.4199 151.285 14.9062C151.562 13.3926 151.977 11.9359 152.53 10.5361C153.1 9.13639 153.808 7.84245 154.654 6.6543C155.517 5.44987 156.518 4.40007 157.657 3.50488C158.797 2.6097 160.082 1.90983 161.515 1.40527C162.963 0.900716 164.558 0.648438 166.3 0.648438C167.748 0.648438 169.067 0.851888 170.255 1.25879C171.459 1.64941 172.525 2.2028 173.453 2.91895C174.397 3.61882 175.211 4.45703 175.895 5.43359C176.594 6.41016 177.164 7.48438 177.604 8.65625C178.059 9.81185 178.393 11.0407 178.604 12.3428C178.832 13.6286 178.946 14.9388 178.946 16.2734ZM169.181 15.0039C169.181 14.5482 169.132 14.0843 169.034 13.6123C168.937 13.124 168.774 12.6846 168.546 12.2939C168.334 11.9033 168.049 11.5859 167.691 11.3418C167.333 11.0814 166.886 10.9512 166.349 10.9512C165.698 10.9512 165.12 11.1302 164.615 11.4883C164.127 11.8301 163.704 12.2695 163.346 12.8066C162.988 13.3275 162.695 13.8971 162.467 14.5156C162.239 15.1341 162.068 15.7038 161.954 16.2246L169.181 15.541V15.0039Z" fill="#2CB67D"/>
<path d="M32.4609 44.1235L32.168 56.5454L23.4375 56.897L21.2109 84.6704L8.84766 85.3149L8.90625 57.5415L0.175781 58.0103L0.527344 44.1821L32.4609 44.1235ZM68.8477 84.8462L54.1992 85.5493L54.082 73.186H47.3438L46.9336 86.0181H33.8086L34.9219 44.8267L48.8672 45.4712L47.9883 66.5063H54.4922L54.5508 44.4751L67.9102 44.8267L68.8477 84.8462ZM105.967 57.7759C105.967 59.2993 105.83 60.686 105.557 61.936C105.303 63.1665 104.893 64.2993 104.326 65.3345C103.76 66.3696 103.027 67.3267 102.129 68.2056C101.23 69.0845 100.146 69.9243 98.877 70.7251L105.85 83.147L92.666 85.7251L88.1543 73.2446L84.5215 73.3618L83.9941 85.5493H71.3965C71.4941 81.0962 71.582 76.6626 71.6602 72.2485C71.7578 67.8345 71.8652 63.4009 71.9824 58.9478C72.0215 56.7017 72.0605 54.4751 72.0996 52.2681C72.1387 50.061 72.2168 47.8345 72.334 45.5884C73.7012 45.0806 75.0488 44.6606 76.377 44.3286C77.7051 43.9966 79.0332 43.7427 80.3613 43.5669C81.709 43.3716 83.0664 43.2446 84.4336 43.186C85.8203 43.1079 87.2363 43.0688 88.6816 43.0688C90.9082 43.0688 93.0566 43.3813 95.127 44.0063C97.2168 44.6118 99.0625 45.5298 100.664 46.7603C102.266 47.9907 103.545 49.5239 104.502 51.3599C105.479 53.1958 105.967 55.3345 105.967 57.7759ZM92.8418 58.7134C92.8418 57.8931 92.7246 57.1411 92.4902 56.4575C92.2754 55.7739 91.9434 55.188 91.4941 54.6997C91.0645 54.1919 90.5176 53.8013 89.8535 53.5278C89.209 53.2349 88.4473 53.0884 87.5684 53.0884C87.1777 53.0884 86.7969 53.1177 86.4258 53.1763C86.0547 53.2153 85.6934 53.2837 85.3418 53.3813L84.873 64.2798H85.5762C86.416 64.2798 87.2656 64.1724 88.125 63.9575C89.0039 63.7427 89.7852 63.4106 90.4688 62.9614C91.1719 62.5122 91.7383 61.936 92.168 61.2329C92.6172 60.5298 92.8418 59.6899 92.8418 58.7134ZM140.42 62.3462C140.42 64.0454 140.303 65.7446 140.068 67.4438C136.729 67.6587 133.408 68.0103 130.107 68.4985C126.807 68.9673 123.506 69.436 120.205 69.9048C120.713 71.311 121.504 72.4341 122.578 73.2739C123.672 74.1138 124.971 74.5337 126.475 74.5337C127.256 74.5337 128.105 74.3872 129.023 74.0942C129.961 73.8013 130.889 73.4399 131.807 73.0103C132.725 72.561 133.604 72.0825 134.443 71.5747C135.283 71.0669 136.006 70.6079 136.611 70.1978L135.205 83.4985C134.443 84.0845 133.613 84.5825 132.715 84.9927C131.836 85.4028 130.918 85.7349 129.961 85.9888C129.004 86.2427 128.037 86.4282 127.061 86.5454C126.084 86.6626 125.127 86.7212 124.189 86.7212C122.256 86.7212 120.488 86.4575 118.887 85.9302C117.285 85.4028 115.83 84.6704 114.521 83.7329C113.232 82.7759 112.1 81.6528 111.123 80.3638C110.146 79.0747 109.336 77.6685 108.691 76.145C108.047 74.6216 107.559 73.0103 107.227 71.311C106.895 69.6118 106.729 67.8931 106.729 66.1548C106.729 64.3384 106.895 62.522 107.227 60.7056C107.559 58.8892 108.057 57.1411 108.721 55.4614C109.404 53.7817 110.254 52.229 111.27 50.8032C112.305 49.3579 113.506 48.0981 114.873 47.0239C116.24 45.9497 117.783 45.1099 119.502 44.5044C121.24 43.8989 123.154 43.5962 125.244 43.5962C126.982 43.5962 128.564 43.8403 129.99 44.3286C131.436 44.7974 132.715 45.4614 133.828 46.3208C134.961 47.1606 135.938 48.1665 136.758 49.3384C137.598 50.5103 138.281 51.7993 138.809 53.2056C139.355 54.5923 139.756 56.0669 140.01 57.6294C140.283 59.1724 140.42 60.7446 140.42 62.3462ZM128.701 60.8228C128.701 60.2759 128.643 59.7192 128.525 59.1528C128.408 58.5669 128.213 58.0396 127.939 57.5708C127.686 57.1021 127.344 56.7212 126.914 56.4282C126.484 56.1157 125.947 55.9595 125.303 55.9595C124.521 55.9595 123.828 56.1743 123.223 56.604C122.637 57.0142 122.129 57.5415 121.699 58.186C121.27 58.811 120.918 59.4946 120.645 60.2368C120.371 60.979 120.166 61.6626 120.029 62.2876L128.701 61.4673V60.8228ZM177.656 83.4985L163.125 85.3735L161.367 78.7524H154.688L153.223 85.3735L138.281 83.9087L149.941 44.8853L166.23 44.0649L177.656 83.4985ZM160.312 69.7876L158.086 59.5923L155.918 69.7876H160.312ZM211.465 62.7563C211.465 65.4907 211.113 67.9419 210.41 70.1099C209.707 72.2778 208.721 74.2017 207.451 75.8813C206.201 77.5415 204.707 78.9575 202.969 80.1294C201.23 81.3013 199.326 82.2681 197.256 83.0298C195.186 83.772 192.979 84.3188 190.635 84.6704C188.311 85.022 185.918 85.1978 183.457 85.1978C182.539 85.1978 181.641 85.1782 180.762 85.1392C179.883 85.0806 178.984 85.0024 178.066 84.9048L178.887 46.7603C181.035 46.0767 183.242 45.5981 185.508 45.3247C187.793 45.0317 190.059 44.8853 192.305 44.8853C195.098 44.8853 197.666 45.2759 200.01 46.0571C202.354 46.8384 204.375 47.9907 206.074 49.5142C207.773 51.0181 209.092 52.8833 210.029 55.1099C210.986 57.3169 211.465 59.8657 211.465 62.7563ZM191.543 74.0063C192.715 73.8306 193.779 73.479 194.736 72.9517C195.713 72.4048 196.553 71.7407 197.256 70.9595C197.959 70.1587 198.496 69.2603 198.867 68.2642C199.258 67.2485 199.453 66.1743 199.453 65.0415C199.453 63.9282 199.336 62.8931 199.102 61.936C198.867 60.9595 198.486 60.1196 197.959 59.4165C197.432 58.6938 196.738 58.1274 195.879 57.7173C195.02 57.2876 193.965 57.0532 192.715 57.0142L191.543 74.0063ZM243.34 71.0181C243.34 73.6938 242.871 76.0083 241.934 77.9614C241.016 79.895 239.746 81.4966 238.125 82.7661C236.523 84.0161 234.639 84.9438 232.471 85.5493C230.322 86.1353 228.008 86.4282 225.527 86.4282C224.57 86.4282 223.516 86.3013 222.363 86.0474C221.23 85.7935 220.078 85.481 218.906 85.1099C217.734 84.7192 216.602 84.3091 215.508 83.8794C214.434 83.4302 213.477 83.0103 212.637 82.6196L213.926 71.1353C215.586 72.1313 217.422 72.8931 219.434 73.4204C221.465 73.9282 223.457 74.1821 225.41 74.1821C225.781 74.1821 226.23 74.1724 226.758 74.1528C227.285 74.1138 227.783 74.0259 228.252 73.8892C228.74 73.7329 229.15 73.5083 229.482 73.2153C229.814 72.9224 229.98 72.5024 229.98 71.9556C229.98 71.5845 229.863 71.272 229.629 71.0181C229.395 70.7446 229.092 70.5298 228.721 70.3735C228.35 70.1978 227.93 70.0708 227.461 69.9927C226.992 69.895 226.533 69.8267 226.084 69.7876C225.635 69.7485 225.215 69.729 224.824 69.729C224.434 69.729 224.121 69.729 223.887 69.729C222.207 69.729 220.674 69.4653 219.287 68.938C217.92 68.4106 216.738 67.6685 215.742 66.7114C214.766 65.7349 214.004 64.563 213.457 63.1958C212.91 61.8091 212.637 60.2759 212.637 58.5962C212.637 56.2915 213.096 54.231 214.014 52.4146C214.951 50.5786 216.191 49.0259 217.734 47.7563C219.297 46.4673 221.084 45.481 223.096 44.7974C225.107 44.1138 227.188 43.772 229.336 43.772C230.293 43.772 231.279 43.811 232.295 43.8892C233.311 43.9478 234.316 44.0649 235.312 44.2407C236.328 44.4165 237.314 44.6411 238.271 44.9146C239.229 45.188 240.137 45.5298 240.996 45.9399L239.883 57.8345C238.555 57.3853 237.158 57.0142 235.693 56.7212C234.248 56.4087 232.832 56.2524 231.445 56.2524C231.191 56.2524 230.859 56.2622 230.449 56.2817C230.059 56.2817 229.639 56.311 229.189 56.3696C228.76 56.4087 228.32 56.4771 227.871 56.5747C227.422 56.6724 227.021 56.8091 226.67 56.9849C226.318 57.1411 226.035 57.356 225.82 57.6294C225.605 57.9028 225.508 58.2251 225.527 58.5962C225.547 59.0259 225.703 59.3579 225.996 59.5923C226.309 59.8267 226.699 60.0024 227.168 60.1196C227.656 60.2173 228.184 60.2661 228.75 60.2661C229.336 60.2661 229.912 60.2563 230.479 60.2368C231.045 60.1978 231.572 60.1685 232.061 60.1489C232.549 60.1099 232.949 60.1001 233.262 60.1196C234.824 60.2173 236.23 60.5493 237.48 61.1157C238.73 61.6821 239.785 62.4341 240.645 63.3716C241.523 64.3091 242.188 65.4321 242.637 66.7407C243.105 68.0298 243.34 69.4556 243.34 71.0181Z" fill="#2CB67D"/>
</svg>
